<svg width="49" height="48" viewBox="0 0 49 48" fill="none" xmlns="http://www.w3.org/2000/svg">
<path fill-rule="evenodd" clip-rule="evenodd" d="M24.6156 0C11.5438 0 0.970947 10.56 0.970947 23.808C0.970947 36.864 11.5438 47.616 24.8078 47.616C38.0719 47.616 48.6447 37.056 48.6447 23.808C48.4525 10.56 37.6874 0 24.6156 0ZM30.5748 14.976C30.3826 14.976 30.3826 14.976 30.1904 14.976C29.2292 14.976 28.4603 14.976 27.6913 14.976C26.5379 14.976 25.5768 15.552 25.5768 16.896C25.5768 18.048 25.5768 20.544 25.5768 20.544C25.5768 20.544 28.268 20.544 29.6137 20.544C29.9981 20.544 30.1904 20.544 30.5748 20.544C30.3826 22.272 30.1904 24 29.9981 25.536H25.769V38.208H20.5787V25.536H16.3496V20.544H20.5787V20.16C20.5787 19.2 20.5787 18.24 20.5787 17.088C20.5787 16.512 20.5787 15.744 20.7709 15.168C20.9632 13.632 21.7321 12.288 23.0777 11.328C24.2311 10.56 25.3845 10.176 26.9224 10.176C27.8836 10.176 28.6525 10.176 29.6137 10.176C30.1904 10.176 30.5748 10.176 30.9593 10.368V14.976H30.5748Z" fill="#DED9CB"/>
</svg>
