<?xml version="1.0" encoding="utf-8"?>
<!-- Generator: Adobe Illustrator 23.0.1, SVG Export Plug-In . SVG Version: 6.00 Build 0)  -->
<svg version="1.1" id="Layer_1" xmlns="http://www.w3.org/2000/svg" xmlns:xlink="http://www.w3.org/1999/xlink" x="0px" y="0px"
	 width="217.6px" height="82px" viewBox="0 0 217.6 82" style="enable-background:new 0 0 217.6 82;" xml:space="preserve">
<style type="text/css">
	.st0{fill:#009AA8;}
</style>
<g>
	<path class="st0" d="M143.9,34.8l-9.5,9.5c-2,2-2,5.2,0,7.1l2.7,2.7c2,2,5.2,2,7.1,0L169,29.3c0.8-0.8,0.8-2.2,0-3L144.2,1.5
		c-2-2-5.2-2-7.1,0l-2.7,2.7c-2,2-2,5.2,0,7.1l9.5,9.5h-43c-2.8,0-5,2.3-5,5v3.8c0,2.8,2.3,5,5,5h43V34.8z"/>
	<path class="st0" d="M175.6,82H8c-4.4,0-8-3.6-8-8v-7.5c0-23.2,18.8-41.9,41.9-41.9h43.7c0.8,0,1.4,0.6,1.4,1.4v3.2
		c0,0.8-0.6,1.4-1.4,1.4H41.9C22,30.6,6,46.7,6,66.5V74c0,1.1,0.9,2,2,2h167.6c1,0,1.9-0.8,1.9-1.9V9c0-1.6,0.5-3.1,1.5-4.3
		c1.8-2.1,4.6-2.7,7-1.8l28,7.8c1.9,0.5,3.4,2.1,3.6,4.1c0.2,2.3-1.1,4.3-3.3,4.9l-25.4,8c-0.7,0.2-1.5-0.2-1.8-0.9l-1-3
		c-0.2-0.7,0.2-1.5,0.9-1.8l21.2-6.7l-24.4-6.8c0,0-0.2-0.1-0.3,0c-0.2,0.1-0.2,0.3-0.2,0.3v65.3C183.5,78.4,179.9,82,175.6,82z"/>
</g>
</svg>
