<?xml version="1.0" encoding="utf-8"?>
<!-- Generator: Adobe Illustrator 23.0.1, SVG Export Plug-In . SVG Version: 6.00 Build 0)  -->
<svg version="1.1" id="Layer_1" xmlns="http://www.w3.org/2000/svg" xmlns:xlink="http://www.w3.org/1999/xlink" x="0px" y="0px"
	 width="163px" height="156.8px" viewBox="0 0 163 156.8" style="enable-background:new 0 0 163 156.8;" xml:space="preserve">
<style type="text/css">
	.st0{fill:#009AA8;}
</style>
<g>
	<path class="st0" d="M21,80.1c2,0,3.8,0.8,5.2,2.2l7.6,7.6c2.9,2.9,2.9,7.6,0,10.5l-7.6,7.6c-1.4,1.4-3.3,2.2-5.2,2.2
		s-3.8-0.8-5.2-2.2l-7.6-7.6c-2.9-2.9-2.9-7.6,0-10.5l7.6-7.6C17.1,80.9,19,80.1,21,80.1 M21,74.1c-3.4,0-6.9,1.3-9.5,3.9l-7.6,7.6
		c-5.2,5.2-5.2,13.7,0,19l7.6,7.6c2.6,2.6,6,3.9,9.5,3.9c3.4,0,6.9-1.3,9.5-3.9l7.6-7.6c5.2-5.2,5.2-13.7,0-19L30.5,78
		C27.8,75.4,24.4,74.1,21,74.1L21,74.1z"/>
	<path class="st0" d="M66,65.7c2,0,3.8,0.8,5.2,2.2l7.6,7.6c2.9,2.9,2.9,7.6,0,10.5l-7.6,7.6c-1.4,1.4-3.3,2.2-5.2,2.2
		s-3.8-0.8-5.2-2.2L53.2,86c-2.9-2.9-2.9-7.6,0-10.5l7.6-7.6C62.2,66.5,64.1,65.7,66,65.7 M66,59.7c-3.4,0-6.9,1.3-9.5,3.9l-7.6,7.7
		c-5.2,5.2-5.2,13.7,0,19l7.6,7.6c2.6,2.6,6,3.9,9.5,3.9c3.4,0,6.9-1.3,9.5-3.9l7.6-7.6c5.2-5.2,5.2-13.7,0-19l-7.6-7.6
		C72.9,61.1,69.5,59.7,66,59.7L66,59.7z"/>
	<path class="st0" d="M113.6,57.8c2,0,3.8,0.8,5.2,2.2l7.6,7.6c2.9,2.9,2.9,7.6,0,10.5l-7.6,7.6c-1.4,1.4-3.3,2.2-5.2,2.2
		s-3.8-0.8-5.2-2.2l-7.6-7.6c-2.9-2.9-2.9-7.6,0-10.5l7.6-7.6C109.7,58.6,111.6,57.8,113.6,57.8 M113.6,51.8c-3.4,0-6.9,1.3-9.5,3.9
		l-7.6,7.6c-5.2,5.2-5.2,13.7,0,19l7.6,7.6c2.6,2.6,6,3.9,9.5,3.9c3.4,0,6.9-1.3,9.5-3.9l7.6-7.6c5.2-5.2,5.2-13.7,0-19l-7.6-7.6
		C120.4,53.1,117,51.8,113.6,51.8L113.6,51.8z"/>
	<path class="st0" d="M131.9,156.8h-3.2c-0.8,0-1.4-0.6-1.4-1.4v-32.7c0-1,0.5-1.9,1.3-2.5l0,0c0.2-0.1,20.1-14,23.7-16.9
		c2.8-2.2,6.3-8.1,3.7-17c-4.8,3-10.8,7.1-16.6,11.1c-3,2.1-9,6.1-11,7.4c-0.4,0.3-0.9,0.4-1.4,0.4h-24c-9.6,0-17.4,7.8-17.4,17.4
		v32.7c0,0.8-0.6,1.4-1.4,1.4H81c-0.8,0-1.4-0.6-1.4-1.4v-32.7c0-12.9,10.5-23.4,23.4-23.4h20.9c1.4,0,2.8-0.4,3.9-1.2
		c2.7-1.8,5.5-3.7,8.2-5.6c7.3-5,14.8-10.1,20-13.2l3-1.8l1.4,3.2c5.3,12.3,1.6,22.6-4.3,27.4c-3,2.4-15.9,11.5-21.5,15.4
		c-0.8,0.6-1.3,1.5-1.3,2.5v29.5C133.3,156.1,132.7,156.8,131.9,156.8z"/>
	<path class="st0" d="M46.7,156.8h-3.2c-0.8,0-1.4-0.6-1.4-1.4V133c0-12.9,10.5-23.4,23.4-23.4h8.8c0.8,0,1.4,0.6,1.4,1.4v3.2
		c0,0.8-0.6,1.4-1.4,1.4h-8.8c-9.6,0-17.4,7.8-17.4,17.4v22.4C48.2,156.1,47.5,156.8,46.7,156.8z"/>
	<path class="st0" d="M9.7,156.8h-4c-0.8,0-1.4-0.6-1.4-1.4V150c0-13.2,10.7-23.9,23.9-23.9H37c0.8,0,1.4,0.6,1.4,1.4v4
		c0,0.8-0.6,1.4-1.4,1.4h-8.8c-9.4,0-17,7.6-17,17v5.4C11.1,156.1,10.4,156.8,9.7,156.8z"/>
	<path class="st0" d="M98.2,156.8h-4c-0.8,0-1.4-0.6-1.4-1.4v-31.2c0-0.8,0.6-1.4,1.4-1.4h4c0.8,0,1.4,0.6,1.4,1.4v31.2
		C99.7,156.1,99,156.8,98.2,156.8z"/>
	<path class="st0" d="M160.6,81.8h-6V1.4c0-0.8,0.6-1.4,1.4-1.4h3.2c0.8,0,1.4,0.6,1.4,1.4L160.6,81.8L160.6,81.8z"/>
	<path class="st0" d="M116.7,47.3H91.3c-1.5,0-2.8-0.7-3.5-2c-0.8-1.2-0.8-2.8-0.2-4.1l3.8-7.5c1-1.9,1-4.2,0-6.1l-3.8-7.5
		c-0.7-1.3-0.6-2.8,0.2-4.1c0.8-1.2,2.1-2,3.5-2h25.4v6H94.3l2.4,4.9c1.8,3.6,1.8,7.9,0,11.5l-2.4,4.9h22.4c2.1,0,3.8-1.7,3.8-3.8h6
		C126.5,42.9,122.1,47.3,116.7,47.3z"/>
	<path class="st0" d="M160.6,40.5h-40.1V17.2c0-5.5,4.4-9.9,9.9-9.9h30.2L160.6,40.5L160.6,40.5z M126.5,34.5h28.1V13.3h-24.2
		c-2.2,0-3.9,1.8-3.9,3.9L126.5,34.5L126.5,34.5z"/>
</g>
</svg>
