<?xml version="1.0" encoding="utf-8"?>
<!-- Generator: Adobe Illustrator 23.0.1, SVG Export Plug-In . SVG Version: 6.00 Build 0)  -->
<svg version="1.1" id="Layer_1" xmlns="http://www.w3.org/2000/svg" xmlns:xlink="http://www.w3.org/1999/xlink" x="0px" y="0px"
	 width="134.3px" height="110px" viewBox="0 0 134.3 110" style="enable-background:new 0 0 134.3 110;" xml:space="preserve">
<style type="text/css">
	.st0{fill:#009AA8;}
</style>
<g>
	<path class="st0" d="M21.1,6c0.3,0,0.8,0.1,1.3,0.5l4.4,4.4c0.4,0.4,0.5,0.9,0.5,1.3c0,0.3-0.1,0.8-0.5,1.3l-4.4,4.4
		c-0.4,0.4-0.9,0.5-1.3,0.5s-0.8-0.1-1.3-0.5l-4.4-4.4c-0.4-0.4-0.5-0.9-0.5-1.3c0-0.3,0.1-0.8,0.5-1.3l4.4-4.4
		C20.3,6.1,20.7,6,21.1,6 M21.1,0c-2,0-4,0.8-5.5,2.3l-4.4,4.4c-3,3-3,8,0,11l4.4,4.4c1.5,1.5,3.5,2.3,5.5,2.3s4-0.8,5.5-2.3
		l4.4-4.4c3-3,3-8,0-11l-4.4-4.4C25.1,0.8,23.1,0,21.1,0L21.1,0z"/>
	<path class="st0" d="M111.7,6c0.3,0,0.8,0.1,1.3,0.5l4.4,4.4c0.4,0.4,0.5,0.9,0.5,1.3c0,0.3-0.1,0.8-0.5,1.3l-4.4,4.4
		c-0.4,0.4-0.9,0.5-1.3,0.5s-0.8-0.1-1.3-0.5l-4.4-4.4c-0.4-0.4-0.5-0.9-0.5-1.3c0-0.3,0.1-0.8,0.5-1.3l4.4-4.4
		C110.8,6.1,111.3,6,111.7,6 M111.7,0c-2,0-4,0.8-5.5,2.3l-4.4,4.4c-3,3-3,8,0,11l4.4,4.4c1.5,1.5,3.5,2.3,5.5,2.3s4-0.8,5.5-2.3
		l4.4-4.4c3-3,3-8,0-11l-4.4-4.4C115.6,0.8,113.6,0,111.7,0L111.7,0z"/>
	<path class="st0" d="M119.4,83.7H93c-0.8,0-1.4-0.6-1.4-1.4v-3.2c0-0.8,0.6-1.4,1.4-1.4h24.9l10.5-42.6c0.2-0.8,1-1.2,1.7-1
		l3.1,0.8c0.8,0.2,1.2,1,1,1.7l-10.8,44C123,82.4,121.3,83.7,119.4,83.7z"/>
	<path class="st0" d="M107.9,110h-3.2c-0.8,0-1.4-0.6-1.4-1.4V80.7h6v27.9C109.4,109.3,108.7,110,107.9,110z"/>
	<path class="st0" d="M42.6,82.3c0,0.8-0.6,1.4-1.4,1.4H14.8c-1.9,0-3.6-1.3-4-3.2L0,36.5c-0.2-0.8,0.3-1.5,1-1.7L4.1,34
		c0.8-0.2,1.5,0.3,1.7,1l10.5,42.6h24.9c0.8,0,1.4,0.6,1.4,1.4V82.3z"/>
	<path class="st0" d="M82.8,110h-3.2c-0.8,0-1.4-0.6-1.4-1.4V71.9c0-2.3,1.9-4.2,4.2-4.2h27.7V39.6L98.7,56.1
		c-0.8,1.1-2.1,1.8-3.4,1.8H39c-1.4,0-2.6-0.7-3.4-1.8L24.2,39.6v28.1h27.7c2.3,0,4.2,1.9,4.2,4.2v36.7c0,0.8-0.6,1.4-1.4,1.4h-3.2
		c-0.8,0-1.4-0.6-1.4-1.4V73.8H22.4c-2.3,0-4.2-1.9-4.2-4.2v-32c0-2.2,1.2-4.3,3.3-5.1c2.3-1,5-0.2,6.4,1.9L40,52h54.3l12-17.4
		c1.3-1.8,3.5-2.8,5.6-2.4c2.5,0.5,4.2,2.7,4.2,5.2v32.2c0,2.3-1.9,4.2-4.2,4.2H84.2v34.8C84.2,109.3,83.6,110,82.8,110z"/>
	<path class="st0" d="M29.5,110h-3.2c-0.8,0-1.4-0.6-1.4-1.4V80.7h6v27.9C30.9,109.3,30.2,110,29.5,110z"/>
</g>
</svg>
