<?xml version="1.0" encoding="utf-8"?>
<!-- Generator: Adobe Illustrator 23.0.1, SVG Export Plug-In . SVG Version: 6.00 Build 0)  -->
<svg version="1.1" id="Layer_1" xmlns="http://www.w3.org/2000/svg" xmlns:xlink="http://www.w3.org/1999/xlink" x="0px" y="0px"
	 width="215.3px" height="113.4px" viewBox="0 0 215.3 113.4" style="enable-background:new 0 0 215.3 113.4;" xml:space="preserve"
	>
<style type="text/css">
	.st0{fill:#009AA8;}
</style>
<g>
	<path class="st0" d="M61.7,87.5L56.2,93c-1.1,1.1-1.1,3,0,4.1l1.6,1.6c1.1,1.1,3,1.1,4.1,0l14.3-14.3c0.5-0.5,0.5-1.3,0-1.7
		L61.9,68.4c-1.1-1.1-3-1.1-4.1,0L56.2,70c-1.1,1.1-1.1,3,0,4.1l5.5,5.5H37c-1.6,0-2.9,1.3-2.9,2.9v2.2c0,1.6,1.3,2.9,2.9,2.9h24.7
		V87.5z"/>
	<path class="st0" d="M145.2,27.9l-5.5,5.5c-1.1,1.1-1.1,3,0,4.1l1.6,1.6c1.1,1.1,3,1.1,4.1,0l14.3-14.3c0.5-0.5,0.5-1.3,0-1.7
		L145.4,8.8c-1.1-1.1-3-1.1-4.1,0l-1.6,1.6c-1.1,1.1-1.1,3,0,4.1l5.5,5.5h-43.3c-1.6,0-2.9,1.3-2.9,2.9v2.2c0,1.6,1.3,2.9,2.9,2.9
		h43.3V27.9z"/>
	<path class="st0" d="M115.3,57.7l-5.5,5.5c-1.1,1.1-1.1,3,0,4.1l1.6,1.6c1.1,1.1,3,1.1,4.1,0l14.3-14.3c0.5-0.5,0.5-1.3,0-1.7
		l-14.3-14.3c-1.1-1.1-3-1.1-4.1,0l-1.6,1.6c-1.1,1.1-1.1,3,0,4.1l5.5,5.5H51.7c-1.6,0-2.9,1.3-2.9,2.9v2.2c0,1.6,1.3,2.9,2.9,2.9
		h63.6V57.7z"/>
	<path class="st0" d="M213.9,113.4H20.8C9.3,113.4,0,104.1,0,92.6V1.4C0,0.6,0.6,0,1.4,0h3.2C5.4,0,6,0.6,6,1.4v91.2
		c0,8.2,6.6,14.8,14.8,14.8h193.1c0.8,0,1.4,0.6,1.4,1.4v3.2C215.3,112.7,214.7,113.4,213.9,113.4z"/>
</g>
</svg>
